%
M48
M72
T01C0.01378
T02C0.02362
T03C0.02756
T04C0.04000
%
T01
X20402Y17850
X28434Y18165
X38040Y22260
X48670Y13598
X76229Y56118
X76229Y66354
X18158Y79937
T02
X7095Y6276
X7095Y16276
X7095Y26276
X7095Y36276
X7095Y46276
X7095Y56276
X7095Y66276
X7095Y76276
X67095Y86276
X77095Y86276
X87095Y86276
X87095Y76276
X87095Y66276
X87095Y56276
X87095Y46276
X87095Y36276
X87095Y26276
X87095Y16276
X87095Y6276
T03
X56938Y10843
X56938Y18717
T04
X41190Y8874
X31190Y8874
X21190Y8874
X23079Y36512
X23079Y46512
X23079Y56512
X25127Y85646
X35127Y85646
X45127Y85646
M30
